<svg width="55" height="55" viewBox="0 0 55 55" fill="none" xmlns="http://www.w3.org/2000/svg">
<path d="M20.1896 4.58337L11.8938 12.9021" stroke="#F7FAFF" stroke-opacity="0.82" stroke-width="1.5" stroke-miterlimit="10" stroke-linecap="round" stroke-linejoin="round"/>
<path d="M34.8103 4.58337L43.1061 12.9021" stroke="#F7FAFF" stroke-opacity="0.82" stroke-width="1.5" stroke-miterlimit="10" stroke-linecap="round" stroke-linejoin="round"/>
<path d="M4.58325 17.9896C4.58325 13.75 6.852 13.4062 9.67075 13.4062H45.3291C48.1478 13.4062 50.4166 13.75 50.4166 17.9896C50.4166 22.9167 48.1478 22.5729 45.3291 22.5729H9.67075C6.852 22.5729 4.58325 22.9167 4.58325 17.9896Z" stroke="#F7FAFF" stroke-opacity="0.82" stroke-width="1.5"/>
<path d="M22.3667 32.0834V40.2188" stroke="#F7FAFF" stroke-opacity="0.82" stroke-width="1.5" stroke-linecap="round"/>
<path d="M32.9084 32.0834V40.2188" stroke="#F7FAFF" stroke-opacity="0.82" stroke-width="1.5" stroke-linecap="round"/>
<path d="M8.02075 22.9166L11.252 42.7166C11.9853 47.1625 13.7499 50.4166 20.3041 50.4166H34.1228C41.2499 50.4166 42.3041 47.3 43.1291 42.9916L46.9791 22.9166" stroke="#F7FAFF" stroke-opacity="0.82" stroke-width="1.5" stroke-linecap="round"/>
</svg>
