<svg width="40" height="38" viewBox="0 0 40 38" fill="none" xmlns="http://www.w3.org/2000/svg">
<path d="M19.7015 -0.192835C15.874 -0.0665245 12.141 1.15581 8.97463 3.31958C5.80826 5.48336 3.35072 8.49141 1.91278 11.9633C0.474842 15.4352 0.121088 19.2151 0.896255 22.8249C1.67142 26.4347 3.54069 29.7124 6.26769 32.2434C8.99468 34.7743 12.4569 36.445 16.2166 37.0441C19.9762 37.6431 23.8645 37.1437 27.3895 35.6089C30.9146 34.0741 33.9183 31.5729 36.0206 28.4216C38.123 25.2702 39.2296 21.6103 39.2006 17.9047C39.1559 12.9375 37.0779 8.24246 33.4223 4.84969C29.7668 1.45693 24.8324 -0.356532 19.7015 -0.192835ZM27.6539 24.9115C27.7155 24.9672 27.7648 25.0345 27.7988 25.1095C27.8328 25.1845 27.8509 25.2657 27.8521 25.3483C27.8533 25.431 27.8375 25.5135 27.8057 25.5911C27.7739 25.6686 27.7266 25.7397 27.6667 25.8001C27.6068 25.8606 27.5353 25.9092 27.4566 25.9433C27.3778 25.9773 27.2933 25.996 27.2079 25.9982C27.1225 26.0005 27.0379 25.9864 26.9591 25.9566C26.8802 25.9268 26.8087 25.882 26.7486 25.8248L19.8551 19.4265L13.065 26.2764C13.0061 26.3385 12.9352 26.3889 12.8567 26.4246C12.7781 26.4603 12.6933 26.4807 12.6074 26.4845C12.5215 26.4882 12.4361 26.4753 12.3563 26.4465C12.2764 26.4177 12.2038 26.3736 12.1426 26.3168C12.0813 26.2599 12.0328 26.1915 11.9998 26.1155C11.9667 26.0395 11.9499 25.9575 11.9502 25.8743C11.9506 25.7911 11.9681 25.7083 12.0017 25.6308C12.0354 25.5534 12.0845 25.4828 12.1462 25.4233L18.936 18.5734L12.0425 12.1751C11.9265 12.0607 11.8622 11.9058 11.8634 11.7433C11.8646 11.5808 11.9312 11.4234 12.0489 11.3046C12.1667 11.1858 12.3264 11.115 12.4941 11.107C12.6619 11.0991 12.8245 11.1547 12.9475 11.2622L19.8413 17.6602L26.6314 10.8106C26.6906 10.7494 26.7614 10.6999 26.8397 10.665C26.918 10.63 27.0023 10.6103 27.0877 10.6069C27.1731 10.6036 27.2579 10.6167 27.3372 10.6455C27.4164 10.6743 27.4886 10.7182 27.5494 10.7747C27.6102 10.8311 27.6586 10.899 27.6916 10.9745C27.7246 11.0499 27.7417 11.1313 27.7418 11.214C27.7419 11.2967 27.7251 11.379 27.6922 11.4562C27.6594 11.5334 27.6112 11.6039 27.5505 11.6636L20.7604 18.5132L27.6539 24.9115Z" fill="#DD7D7D"/>
</svg>
